<?xml version="1.0" encoding="utf-8"?>
<!-- Generator: Adobe Illustrator 15.1.0, SVG Export Plug-In  -->
<!DOCTYPE svg PUBLIC "-//W3C//DTD SVG 1.1//EN" "http://www.w3.org/Graphics/SVG/1.1/DTD/svg11.dtd" [
	<!ENTITY ns_flows "http://ns.adobe.com/Flows/1.0/">
]>
<svg version="1.1"
	 xmlns="http://www.w3.org/2000/svg" xmlns:xlink="http://www.w3.org/1999/xlink" xmlns:a="http://ns.adobe.com/AdobeSVGViewerExtensions/3.0/"
	 x="0px" y="0px" width="165px" height="69px" viewBox="-3.606 -4.468 165 69"
	 overflow="visible" enable-background="new -3.606 -4.468 165 69" xml:space="preserve">
<defs>
</defs>
<path fill="#46ACD9" d="M25.499,42.891v-3.565h13.036v3.565H25.499z"/>
<path fill="#46ACD9" d="M58.981,28.928c-1.139-1.733-2.773-2.575-5.546-2.575c-2.228,0-3.812,0.495-4.704,1.436
	c-1.139,1.139-1.287,2.773-1.287,3.713c0,1.931,0.594,2.972,1.584,3.664c0.99,0.693,2.327,0.94,3.912,1.089
	c3.714,0.348,6.09,0.99,8.021,2.18c2.426,1.535,3.614,3.911,3.614,7.13c0,2.524-1.04,4.853-2.822,6.585
	c-2.228,2.18-5.298,3.021-8.219,3.021c-3.516,0-6.289-0.99-8.368-2.971c-1.733-1.733-2.822-3.961-3.218-7.13l0.099-0.05h4.357
	c0.297,1.931,0.892,3.069,1.783,3.911c1.337,1.238,3.317,1.932,6.09,1.733c3.713-0.198,5.892-2.327,5.892-5.1
	c0-1.238-0.248-2.327-1.287-3.169c-1.04-0.793-2.921-1.387-6.289-1.635c-6.189-0.544-9.556-3.564-9.556-9.259
	c0-2.772,0.891-5.149,2.624-6.882c1.832-1.832,4.407-2.773,7.725-2.773c3.614,0,6.239,1.188,8.021,3.12
	c1.783,1.931,2.724,4.407,3.07,7.13h-4.457C59.873,30.958,59.575,29.869,58.981,28.928z"/>
<path fill="#46ACD9" d="M84.332,54.874V39.672c0-1.585-0.644-2.971-1.634-3.961c-0.99-0.99-2.376-1.634-3.812-1.634
	c-1.535,0-2.872,0.644-3.862,1.634c-0.99,0.99-1.634,2.376-1.634,3.961v15.201h-4.357V21.847h4.357v10.002
	c1.584-1.485,3.516-2.228,5.496-2.228c2.724,0,5.149,1.139,6.932,2.921c1.783,1.832,2.873,4.357,2.873,7.13v15.201H84.332z"/>
<path fill="#46ACD9" d="M108.493,54.725v-2.079c-1.287,1.386-3.516,2.426-5.496,2.426c-2.724,0-5.199-1.139-6.981-2.922
	c-1.783-1.782-2.872-4.258-2.872-7.031V30.116h4.357v15.002c0,1.535,0.644,2.922,1.634,3.912s2.327,1.634,3.862,1.634
	c1.437,0,2.872-0.644,3.862-1.634s1.634-2.377,1.634-3.912V30.116h4.308v24.609H108.493z"/>
<path fill="#46ACD9" d="M128.793,34.87c-0.742-0.347-1.484-0.545-2.129-0.545c-1.238,0-2.426,0.495-3.268,1.387
	s-1.387,2.079-1.387,3.417v15.745h-4.258V39.128c0-3.615,1.98-6.734,5.1-8.369c1.139-0.544,2.377-0.842,3.812-0.842
	c2.129,0,4.011,0.693,6.239,2.525L128.793,34.87z"/>
<path fill="#46ACD9" d="M136.912,24.273c0-1.238,0.99-2.278,2.278-2.278c1.237,0,2.278,1.04,2.278,2.278
	c0,1.288-1.041,2.278-2.278,2.278C137.902,26.551,136.912,25.561,136.912,24.273z M137.16,54.874V30.116h4.159v24.757H137.16z"/>
<path fill="#46ACD9" d="M147.379,29.494l2.752-3.931l-8.859-2.096l-5.006-7.604l-2.75,3.931l0.008,0.007
	c-0.035,0.038-0.068,0.08-0.1,0.124c-1.004,1.435,1.285,4.771,5.113,7.45c3.83,2.679,7.746,3.686,8.752,2.25
	c0.031-0.044,0.059-0.089,0.082-0.136L147.379,29.494z"/>
<path fill="#46ACD9" d="M154.209,28.956c0.143-0.204,0.133-0.469-0.006-0.66l0.012,0.008l1.666-2.382l2.229,0.528l-9.174-13.938
	l-16.236-3.84l9.174,13.938l13.586,3.213l-1.574,2.25l0.01,0.009c-0.227-0.064-0.479,0.015-0.621,0.22
	c-0.117,0.166-0.131,0.372-0.059,0.546l-1.711,0.899l1.955,1.368l0.258-1.915C153.904,29.206,154.094,29.122,154.209,28.956z"/>
<rect y="20.199" fill="#46ACD9" width="20" height="41"/>
<polygon fill="#46ACD9" points="9.856,0 4,12.199 15.718,12.199 "/>
</svg>
